<?xml version="1.0" encoding="utf-8"?>
<!-- Generator: Adobe Illustrator 16.0.0, SVG Export Plug-In . SVG Version: 6.00 Build 0)  -->
<!DOCTYPE svg PUBLIC "-//W3C//DTD SVG 1.1//EN" "http://www.w3.org/Graphics/SVG/1.1/DTD/svg11.dtd">
<svg version="1.1" id="Layer_1" xmlns="http://www.w3.org/2000/svg" xmlns:xlink="http://www.w3.org/1999/xlink" x="0px" y="0px"
	 width="23px" height="22.974px" viewBox="0 0 23 22.974" enable-background="new 0 0 23 22.974" xml:space="preserve">
<path fill="#FF0000" d="M0.504,2.832c3.108-5.79,7.419-1.497,8.723,2.196c0.702,1.897,0.201,2.696-0.902,3.494
	c-2.106,1.697,4.412,8.186,6.116,6.09c0.802-0.998,1.604-1.597,3.51-0.898c3.709,1.298,8.021,5.59,2.205,8.785
	C13.638,25.992-3.105,9.322,0.504,2.832z M2.81,1.934C0.705,3.83,1.005,6.126,2.71,9.222C5.517,14.413,15.143,23.696,19.553,21.3
	c2.006-1.098,3.009-2.596,1.104-4.292c-1.104-0.999-3.911-2.896-4.713-1.997c-1.002,0.998-0.902,1.696-3.409,1.198
	c-2.105-0.399-5.314-3.595-5.815-5.79C5.918,6.426,9.026,8.323,7.923,5.428C7.623,4.33,5.216-0.163,2.81,1.934z"/>
</svg>
