<?xml version="1.0" encoding="utf-8"?>
<!-- Generator: Adobe Illustrator 16.0.0, SVG Export Plug-In . SVG Version: 6.00 Build 0)  -->
<!DOCTYPE svg PUBLIC "-//W3C//DTD SVG 1.1//EN" "http://www.w3.org/Graphics/SVG/1.1/DTD/svg11.dtd">
<svg version="1.1" id="Layer_1" xmlns="http://www.w3.org/2000/svg" xmlns:xlink="http://www.w3.org/1999/xlink" x="0px" y="0px"
	 width="21.017px" height="28.001px" viewBox="0 0 21.017 28.001" enable-background="new 0 0 21.017 28.001" xml:space="preserve">
<g>
	<g>
		<path fill="#FF0000" d="M20.95,27.014l-3.693-7.808c-0.074-0.156-0.202-0.275-0.354-0.341l-1.838-0.817l3.184-5.333
			c0.008-0.012,0.016-0.025,0.021-0.039c0.634-1.235,0.955-2.57,0.955-3.965c0-2.351-0.923-4.552-2.596-6.203
			c-1.674-1.649-3.892-2.54-6.244-2.507C8.101,0.033,5.949,0.95,4.328,2.584C2.706,4.217,1.807,6.375,1.793,8.657
			c-0.009,1.396,0.321,2.785,0.953,4.019c0.007,0.013,0.014,0.027,0.021,0.039l3.185,5.333L4.104,18.87
			c-0.151,0.066-0.273,0.187-0.344,0.336l-3.693,7.808c-0.124,0.261-0.072,0.572,0.13,0.778c0.202,0.207,0.512,0.267,0.776,0.148
			l4.627-2.06l4.627,2.06c0.18,0.08,0.384,0.08,0.563,0l4.628-2.06l4.627,2.06c0.091,0.04,0.187,0.061,0.281,0.061
			c0.183,0,0.362-0.072,0.495-0.209C21.021,27.586,21.074,27.274,20.95,27.014z M3.967,12.026c-0.532-1.047-0.799-2.176-0.791-3.36
			c0.023-3.962,3.266-7.229,7.229-7.282c1.979-0.027,3.845,0.721,5.253,2.109c1.409,1.388,2.185,3.241,2.185,5.218
			c0,1.168-0.267,2.283-0.793,3.315l-5.947,9.961c-0.182,0.305-0.476,0.337-0.594,0.337c-0.117,0-0.412-0.032-0.593-0.337
			L3.967,12.026z M15.698,24.494c-0.18-0.079-0.384-0.079-0.563,0l-4.628,2.059l-4.627-2.059c-0.179-0.079-0.384-0.079-0.563,0
			l-3.205,1.427L4.9,20.028l1.766-0.785l2.061,3.453c0.378,0.632,1.044,1.01,1.781,1.01s1.403-0.378,1.781-1.01l2.062-3.453
			l1.766,0.785l2.787,5.893L15.698,24.494z M13.664,8.71c0-1.739-1.416-3.153-3.155-3.153c-1.74,0-3.156,1.414-3.156,3.153
			c0,1.738,1.416,3.153,3.156,3.153C12.248,11.863,13.664,10.448,13.664,8.71z M8.735,8.71c0-0.977,0.796-1.771,1.773-1.771
			s1.772,0.794,1.772,1.771c0,0.977-0.795,1.771-1.772,1.771S8.735,9.687,8.735,8.71z"/>
	</g>
</g>
</svg>
