<?xml version="1.0" encoding="utf-8"?>
<!-- Generator: Adobe Illustrator 16.0.0, SVG Export Plug-In . SVG Version: 6.00 Build 0)  -->
<!DOCTYPE svg PUBLIC "-//W3C//DTD SVG 1.1//EN" "http://www.w3.org/Graphics/SVG/1.1/DTD/svg11.dtd">
<svg version="1.1" id="Layer_1" xmlns="http://www.w3.org/2000/svg" xmlns:xlink="http://www.w3.org/1999/xlink" x="0px" y="0px"
	 width="24px" height="17.999px" viewBox="0 0 24 17.999" enable-background="new 0 0 24 17.999" xml:space="preserve">
<path fill="#FF0000" d="M21,0H3C1.353,0,0,1.331,0,2.951v12.096c0,1.62,1.353,2.952,3,2.952h18c1.647,0,3-1.332,3-2.952V2.951
	C24,1.331,22.648,0,21,0z M22.53,15.046c0,0.811-0.677,1.504-1.529,1.504H3c-0.824,0-1.529-0.665-1.529-1.504V2.951
	c0-0.81,0.676-1.504,1.529-1.504h18c0.823,0,1.529,0.665,1.529,1.504V15.046L22.53,15.046z M20.971,14.149
	c0.294,0.261,0.323,0.725,0.029,1.014c-0.147,0.145-0.353,0.231-0.529,0.231c-0.178,0-0.354-0.059-0.5-0.203l-5.853-5.382
	l-1.648,1.36c-0.147,0.115-0.294,0.174-0.471,0.174s-0.353-0.059-0.47-0.174l-1.647-1.36L4.029,15.22
	c-0.147,0.145-0.324,0.202-0.5,0.202c-0.206,0-0.382-0.087-0.529-0.231c-0.265-0.289-0.265-0.752,0.029-1.013l5.735-5.324
	L3.059,4.108C2.735,3.848,2.706,3.386,2.971,3.096C3.235,2.777,3.706,2.749,4,3.008l8,6.656l8-6.656
	c0.323-0.26,0.765-0.231,1.03,0.087c0.264,0.318,0.234,0.752-0.089,1.013l-5.706,4.746L20.971,14.149z"/>
</svg>
